name rise38.3101peak57.3503fall81.6963.mot
datacolumns 19
datarows 29
range 17.24327700000000 17.28995300000000
endheader
time	ground_force1_vx	ground_force1_vy	ground_force1_vz	ground_force1_px	ground_force1_py	ground_force1_pz	ground_force2_vx	ground_force2_vy	ground_force2_vz	ground_force2_px	ground_force2_py	ground_force2_pz	ground_torque1_x	ground_torque1_y	ground_torque1_z	ground_torque2_x	ground_torque2_y	ground_torque2_z	
17.24327700000000	-49.82129100000000	835.67019300000004	64.19323199999999	0.11390700000000	0.00000000000000	0.12847500000000	-17.12190300000000	40.17623900000000	12.40553500000000	0.33629000000000	0.00000000000000	-0.04792600000000	0.00000000000000	26.60292800000000	0.00000000000000	0.00000000000000	7.21562300000000	0.00000000000000	
17.24494300000000	-49.71978100000000	832.02837499999998	63.84656100000000	0.11354400000000	0.00000000000000	0.12846400000000	-19.02071700000000	46.64680900000000	14.04277000000000	0.34107000000000	0.00000000000000	-0.04817300000000	0.00000000000000	26.42472400000000	0.00000000000000	0.00000000000000	8.27741800000000	0.00000000000000	
17.24662600000000	-49.63224100000000	828.25515299999995	63.46318700000000	0.11320100000000	0.00000000000000	0.12844900000000	-20.66820300000000	53.08677900000000	15.56510900000000	0.34564900000000	0.00000000000000	-0.04841100000000	0.00000000000000	26.24660800000000	0.00000000000000	0.00000000000000	9.29550200000000	0.00000000000000	
17.24827700000000	-49.55944200000000	824.35226100000000	63.04323800000000	0.11287800000000	0.00000000000000	0.12842800000000	-22.02120800000000	59.40584500000000	16.94038800000000	0.35004200000000	0.00000000000000	-0.04864200000000	0.00000000000000	26.06886200000000	0.00000000000000	0.00000000000000	10.24862300000000	0.00000000000000	
17.24994300000000	-49.50210000000000	820.32141600000000	62.58692000000000	0.11257600000000	0.00000000000000	0.12840100000000	-23.05390300000000	65.53925300000000	18.14680500000000	0.35426200000000	0.00000000000000	-0.04886600000000	0.00000000000000	25.89174900000000	0.00000000000000	0.00000000000000	11.12098700000000	0.00000000000000	
17.25161600000000	-49.46087500000000	816.16431799999998	62.09451400000000	0.11229400000000	0.00000000000000	0.12837000000000	-23.75763700000000	71.44940099999999	19.17314400000000	0.35831900000000	0.00000000000000	-0.04908600000000	0.00000000000000	25.71551700000000	0.00000000000000	0.00000000000000	11.90266900000000	0.00000000000000	
17.25327200000000	-49.43636700000000	811.88263700000005	61.56637900000000	0.11203500000000	0.00000000000000	0.12833200000000	-24.13941400000000	77.12495000000000	20.01809300000000	0.36222200000000	0.00000000000000	-0.04930400000000	0.00000000000000	25.54039200000000	0.00000000000000	0.00000000000000	12.58948300000000	0.00000000000000	
17.25493600000000	-49.42910900000000	807.47800700000005	61.00294600000000	0.11179600000000	0.00000000000000	0.12828900000000	-24.21933100000000	82.57791400000001	20.68887400000000	0.36597800000000	0.00000000000000	-0.04952000000000	0.00000000000000	25.36657900000000	0.00000000000000	0.00000000000000	13.18239900000000	0.00000000000000	
17.25660700000000	-49.43956700000000	802.95202500000005	60.40471900000000	0.11157900000000	0.00000000000000	0.12823900000000	-24.02738400000000	87.83933000000000	21.19939500000000	0.36959300000000	0.00000000000000	-0.04973400000000	0.00000000000000	25.19426200000000	0.00000000000000	0.00000000000000	13.68663500000000	0.00000000000000	
17.25827100000000	-49.46813400000000	798.30623600000001	59.77227400000000	0.11138400000000	0.00000000000000	0.12818400000000	-23.59999500000000	92.95409800000000	21.56818900000000	0.37307100000000	0.00000000000000	-0.04994900000000	0.00000000000000	25.02360100000000	0.00000000000000	0.00000000000000	14.11054700000000	0.00000000000000	
17.25993800000000	-49.51512900000000	793.54213500000003	59.10625200000000	0.11121000000000	0.00000000000000	0.12812300000000	-22.97661600000000	97.97558700000000	21.81631900000000	0.37641800000000	0.00000000000000	-0.05016400000000	0.00000000000000	24.85473300000000	0.00000000000000	0.00000000000000	14.46445100000000	0.00000000000000	
17.26160600000000	-49.58079000000000	788.66115900000000	58.40736300000000	0.11105700000000	0.00000000000000	0.12805500000000	-22.19665500000000	102.96045500000000	21.96544600000000	0.37963500000000	0.00000000000000	-0.05038100000000	0.00000000000000	24.68777100000000	0.00000000000000	0.00000000000000	14.75948600000000	0.00000000000000	
17.26327400000000	-49.66527200000000	783.66468499999996	57.67637800000000	0.11092500000000	0.00000000000000	0.12798100000000	-21.29692400000000	107.96408300000000	22.03618100000000	0.38272700000000	0.00000000000000	-0.05059900000000	0.00000000000000	24.52280400000000	0.00000000000000	0.00000000000000	15.00659600000000	0.00000000000000	
17.26493900000000	-49.76864700000000	778.55402300000003	56.91413100000000	0.11081400000000	0.00000000000000	0.12790100000000	-20.30971400000000	113.03686900000000	22.04679200000000	0.38569600000000	0.00000000000000	-0.05081900000000	0.00000000000000	24.35989400000000	0.00000000000000	0.00000000000000	15.21570200000000	0.00000000000000	
17.26660200000000	-49.89089500000000	773.33041700000001	56.12151300000000	0.11072300000000	0.00000000000000	0.12781400000000	-19.26153800000000	118.22150600000001	22.01232200000000	0.38854500000000	0.00000000000000	-0.05104200000000	0.00000000000000	24.19907800000000	0.00000000000000	0.00000000000000	15.39509400000000	0.00000000000000	
17.26827200000000	-50.03190700000000	767.99504000000002	55.29947100000000	0.11065200000000	0.00000000000000	0.12772100000000	-18.17252000000000	123.55129500000000	21.94409600000000	0.39127400000000	0.00000000000000	-0.05126700000000	0.00000000000000	24.04036900000000	0.00000000000000	0.00000000000000	15.55105100000000	0.00000000000000	
17.26994000000000	-50.19147900000000	762.54899100000000	54.44900300000000	0.11059900000000	0.00000000000000	0.12762200000000	-17.05636300000000	129.04942700000001	21.84959600000000	0.39388600000000	0.00000000000000	-0.05149400000000	0.00000000000000	23.88375500000000	0.00000000000000	0.00000000000000	15.68769000000000	0.00000000000000	
17.27161700000000	-50.36931100000000	756.99329999999998	53.57115700000000	0.11056400000000	0.00000000000000	0.12751600000000	-15.92078600000000	134.72910200000001	21.73264600000000	0.39638200000000	0.00000000000000	-0.05172500000000	0.00000000000000	23.72919700000000	0.00000000000000	0.00000000000000	15.80699700000000	0.00000000000000	
17.27327400000000	-50.56500400000000	751.32892000000004	52.66702800000000	0.11054600000000	0.00000000000000	0.12740300000000	-14.76832600000000	140.59434600000000	21.59383000000000	0.39876300000000	0.00000000000000	-0.05195900000000	0.00000000000000	23.57663200000000	0.00000000000000	0.00000000000000	15.90902900000000	0.00000000000000	
17.27494000000000	-50.77806000000000	745.55673200000001	51.73775300000000	0.11054400000000	0.00000000000000	0.12728400000000	-13.59736000000000	146.64131499999999	21.43108000000000	0.40103100000000	0.00000000000000	-0.05219500000000	0.00000000000000	23.42597400000000	0.00000000000000	0.00000000000000	15.99222100000000	0.00000000000000	
17.27662200000000	-51.00788000000000	739.67754400000001	50.78451000000000	0.11055800000000	0.00000000000000	0.12715900000000	-12.40324800000000	152.85990699999999	21.24035000000000	0.40318700000000	0.00000000000000	-0.05243500000000	0.00000000000000	23.27711400000000	0.00000000000000	0.00000000000000	16.05377100000000	0.00000000000000	
17.27827100000000	-51.25376300000000	733.69209499999999	49.80851300000000	0.11058500000000	0.00000000000000	0.12702700000000	-11.17947200000000	159.23550599999999	21.01631100000000	0.40523300000000	0.00000000000000	-0.05267700000000	0.00000000000000	23.12991800000000	0.00000000000000	0.00000000000000	16.09005100000000	0.00000000000000	
17.27994400000000	-51.51490600000000	727.60105599999997	48.81100800000000	0.11062500000000	0.00000000000000	0.12689000000000	-9.91870500000000	165.75070299999999	20.75302100000000	0.40716800000000	0.00000000000000	-0.05292300000000	0.00000000000000	22.98423100000000	0.00000000000000	0.00000000000000	16.09701200000000	0.00000000000000	
17.28161900000000	-51.79040400000000	721.40503200000001	47.79327300000000	0.11067600000000	0.00000000000000	0.12674500000000	-8.61372700000000	172.38686600000000	20.44451500000000	0.40899400000000	0.00000000000000	-0.05317100000000	0.00000000000000	22.83987900000000	0.00000000000000	0.00000000000000	16.07055500000000	0.00000000000000	
17.28327600000000	-52.07925000000000	715.10457199999996	46.75661400000000	0.11073800000000	0.00000000000000	0.12659500000000	-7.25816600000000	179.12548600000000	20.08528800000000	0.41071300000000	0.00000000000000	-0.05342200000000	0.00000000000000	22.69666700000000	0.00000000000000	0.00000000000000	16.00684200000000	0.00000000000000	
17.28494400000000	-52.38033700000000	708.70016999999996	45.70235800000000	0.11080800000000	0.00000000000000	0.12643900000000	-5.84702600000000	185.94923199999999	19.67066800000000	0.41232500000000	0.00000000000000	-0.05367600000000	0.00000000000000	22.55438200000000	0.00000000000000	0.00000000000000	15.90254100000000	0.00000000000000	
17.28660300000000	-52.69245800000000	702.19227500000000	44.63185400000000	0.11088600000000	0.00000000000000	0.12627700000000	-4.37701600000000	192.84269300000000	19.19705400000000	0.41383100000000	0.00000000000000	-0.05393200000000	0.00000000000000	22.41279100000000	0.00000000000000	0.00000000000000	15.75499800000000	0.00000000000000	
17.28827500000000	-53.01430900000000	695.58129799999995	43.54646900000000	0.11096900000000	0.00000000000000	0.12610800000000	-2.84669800000000	199.79283300000000	18.66204300000000	0.41523200000000	0.00000000000000	-0.05419000000000	0.00000000000000	22.27165000000000	0.00000000000000	0.00000000000000	15.56232500000000	0.00000000000000	
17.28995300000000	-53.34449100000000	688.86762099999999	42.44758400000000	0.11105700000000	0.00000000000000	0.12593400000000	-1.25645500000000	206.78915599999999	18.06445600000000	0.41653000000000	0.00000000000000	-0.05445000000000	0.00000000000000	22.13069500000000	0.00000000000000	0.00000000000000	15.32344000000000	0.00000000000000	
